<svg width="1178" height="401" viewBox="0 0 1178 401" fill="none" xmlns="http://www.w3.org/2000/svg">
<path d="M63.744 247.36L60.424 254H9.96V248.854L25.564 236.57V135.974L8.3 130.164L11.62 123.524H62.084V128.67L46.314 140.954V241.384L63.744 247.36ZM137.282 254H107.236L55.776 188.596L106.738 144.108L87.482 130.164L90.802 123.524H135.456V128.67L75.696 180.794L121.346 237.898L140.602 247.36L137.282 254ZM283.918 254H233.454V248.854L249.058 236.736L236.276 206.026H180.5L166.888 237.4L196.104 247.36L192.784 254H142.32V248.854L157.924 236.57L204.902 128.836L222.166 120.37L270.638 237.234L287.238 247.36L283.918 254ZM209.052 140.29L183.82 198.556H233.288L209.052 140.29ZM396.818 254H297.218V248.854L312.822 236.57V135.974L295.558 130.164L298.878 123.524H349.342V128.67L333.572 140.954V246.53H376.4L400.802 210.508L405.782 212.168V256.988L396.818 254ZM558.532 254H508.068V248.854L523.672 236.736L510.89 206.026H455.114L441.502 237.4L470.718 247.36L467.398 254H416.934V248.854L432.538 236.57L479.516 128.836L496.78 120.37L545.252 237.234L561.852 247.36L558.532 254ZM483.666 140.29L458.434 198.556H507.902L483.666 140.29ZM673.449 162.036L668.469 163.696L646.391 130.994H626.139V241.384L643.569 247.36L640.249 254H589.785V248.854L605.389 236.57V130.994H585.635L563.557 163.696L558.577 162.036V120.536L567.541 123.524H664.485L673.449 120.536V162.036ZM831.818 254H781.354V248.854L796.958 236.57V192.746H731.388V241.384L748.818 247.36L745.498 254H695.034V248.854L710.638 236.57V135.974L693.374 130.164L696.694 123.524H747.158V128.67L731.388 140.954V185.276H796.958V135.974L779.694 130.164L783.014 123.524H833.478V128.67L817.708 140.954V241.384L835.138 247.36L831.818 254ZM903.879 254H853.415V248.854L869.019 236.57V135.974L851.755 130.164L855.075 123.524H905.539V128.67L889.769 140.954V241.384L907.199 247.36L903.879 254ZM991.958 241.384L1009.39 247.36L1006.07 254H955.604V248.854L971.208 236.57V207.022L928.546 138.132L915.432 130.164L918.752 123.524H969.216V128.67L953.778 140.622L986.978 194.572L1021.51 140.622L994.946 130.164L998.266 123.524H1048.73V128.67L1035.12 136.97L991.958 204.532V241.384ZM1173.25 254H1122.79V248.854L1138.39 236.736L1125.61 206.026H1069.83L1056.22 237.4L1085.44 247.36L1082.12 254H1031.65V248.854L1047.26 236.57L1094.23 128.836L1111.5 120.37L1159.97 237.234L1176.57 247.36L1173.25 254ZM1098.38 140.29L1073.15 198.556H1122.62L1098.38 140.29Z" fill="#8A49D6"/>
<path d="M745.174 362V298.888H755.856V362H745.174ZM768.238 362V298.888H777.646L810.574 345.34V298.888H821.158V362H811.75L778.92 315.646V362H768.238ZM833.604 362V298.888H876.528V307.218H844.286V326.328H872.902V334.56H844.286V362H833.604ZM912.926 362.98C902.93 362.98 895.45 360.367 890.484 355.14C885.519 349.848 883.036 341.681 883.036 330.64C883.036 319.141 885.519 310.811 890.484 305.65C895.45 300.489 902.93 297.908 912.926 297.908C922.988 297.908 930.468 300.489 935.368 305.65C940.334 310.811 942.816 319.141 942.816 330.64C942.816 341.681 940.334 349.848 935.368 355.14C930.468 360.367 922.988 362.98 912.926 362.98ZM912.926 353.964C919.525 353.964 924.36 352.167 927.43 348.574C930.566 344.915 932.134 338.937 932.134 330.64C932.134 321.885 930.566 315.777 927.43 312.314C924.36 308.786 919.525 307.022 912.926 307.022C906.393 307.022 901.558 308.786 898.422 312.314C895.352 315.777 893.816 321.885 893.816 330.64C893.816 338.937 895.352 344.915 898.422 348.574C901.558 352.167 906.393 353.964 912.926 353.964ZM968.642 362V307.218H948.454V298.888H999.414V307.218H979.324V362H968.642ZM1007.97 362V298.888H1051.98V307.218H1018.66V326.328H1048.35V334.56H1018.66V353.768H1051.98V362H1007.97ZM1090.49 362.98C1080.11 362.98 1072.23 360.138 1066.88 354.454C1061.58 348.77 1058.94 341.093 1058.94 331.424C1058.94 324.499 1060.05 318.553 1062.27 313.588C1064.56 308.557 1068.02 304.703 1072.66 302.024C1077.3 299.28 1083.21 297.908 1090.4 297.908C1094.06 297.908 1097.39 298.202 1100.39 298.79C1103.46 299.313 1106.31 300.031 1108.92 300.946V310.256C1106.31 309.211 1103.5 308.427 1100.49 307.904C1097.55 307.316 1094.45 307.022 1091.18 307.022C1083.34 307.022 1077.79 309.113 1074.52 313.294C1071.32 317.475 1069.72 323.519 1069.72 331.424C1069.72 338.807 1071.48 344.425 1075.01 348.28C1078.54 352.069 1083.99 353.964 1091.38 353.964C1094.38 353.964 1097.39 353.735 1100.39 353.278C1103.46 352.755 1106.34 351.971 1109.02 350.926V360.334C1106.4 361.183 1103.56 361.837 1100.49 362.294C1097.49 362.751 1094.15 362.98 1090.49 362.98ZM1119.37 362V298.888H1130.06V326.328H1160.44V298.888H1171.12V362H1160.44V334.56H1130.06V362H1119.37Z" fill="black"/>
</svg>
