<svg xmlns="http://www.w3.org/2000/svg" xmlns:xlink="http://www.w3.org/1999/xlink" width="18" height="18" viewBox="0 0 18 18">
  <defs>
    <clipPath id="clip-path">
      <rect id="Rectángulo_10660" data-name="Rectángulo 10660" width="18" height="18" fill="#9a9a9a" stroke="#707070" stroke-width="1"/>
    </clipPath>
  </defs>
  <g id="Enmascarar_grupo_57872" data-name="Enmascarar grupo 57872" clip-path="url(#clip-path)">
    <path id="file-export" d="M13.995,15.675a.742.742,0,0,0-1.057.068,2.244,2.244,0,0,1-1.687.765H3.75a2.257,2.257,0,0,1-2.25-2.25V3.75A2.257,2.257,0,0,1,3.75,1.5H7.133a3.012,3.012,0,0,1,.367.015V5.25A2.257,2.257,0,0,0,9.75,7.5h4.358a.739.739,0,0,0,.593-.293.766.766,0,0,0,.135-.645,5.233,5.233,0,0,0-1.373-2.415l-2.61-2.61A5.219,5.219,0,0,0,7.14,0H3.75A3.751,3.751,0,0,0,0,3.75v10.5A3.751,3.751,0,0,0,3.75,18h7.5a3.772,3.772,0,0,0,2.813-1.267A.742.742,0,0,0,13.995,15.675ZM9,2a3.812,3.812,0,0,1,.788.607l2.61,2.61A3.837,3.837,0,0,1,13,6H9.743a.752.752,0,0,1-.75-.75V2Zm8.347,11.572L16.14,14.775a.736.736,0,0,1-.532.218.768.768,0,0,1-.532-.218.747.747,0,0,1,0-1.057l.968-.968h-5.55a.75.75,0,1,1,0-1.5h5.55l-.968-.967a.748.748,0,1,1,1.057-1.057l1.208,1.207a2.232,2.232,0,0,1,0,3.143Z" transform="translate(0.007)" fill="#9a9a9a"/>
  </g>
</svg>
