<svg xmlns="http://www.w3.org/2000/svg" xmlns:xlink="http://www.w3.org/1999/xlink" width="76" height="76" viewBox="0 0 76 76">
  <defs>
    <clipPath id="clip-path">
      <rect id="Rectángulo_11145" data-name="Rectángulo 11145" width="76" height="76" transform="translate(765.127 351.127)" stroke="#000" stroke-width="1"/>
    </clipPath>
    <clipPath id="clip-path-2">
      <path id="path3048" d="M0-64H76.254V12.254H0Z" transform="translate(0 64)"/>
    </clipPath>
  </defs>
  <g id="Enmascarar_grupo_57992" data-name="Enmascarar grupo 57992" transform="translate(-765.127 -351.127)" clip-path="url(#clip-path)">
    <g id="g3042" transform="translate(765 351)">
      <g id="g3044">
        <g id="g3046" clip-path="url(#clip-path-2)">
          <g id="g3052" transform="translate(15.566 23.359)">
            <path id="path3054" d="M7.6,6.749H-18.559a6.226,6.226,0,0,1-6.458-5.515l-2.623-41.7a3.857,3.857,0,0,1,4.058-3.882h36.2a3.857,3.857,0,0,1,4.058,3.882l-2.623,41.7A6.226,6.226,0,0,1,7.6,6.749Z" transform="translate(27.647 44.344)" fill="none" stroke="#000" stroke-linecap="round" stroke-linejoin="round" stroke-width="1.5"/>
          </g>
          <g id="g3056" transform="translate(12.357 5.364)">
            <path id="path3058" d="M9.233.011-30.561,6.8a3.66,3.66,0,0,0-2.992,4.223l.466,2.729L13.922,5.732,13.456,3A3.659,3.659,0,0,0,9.233.011Z" transform="translate(33.605 0.041)" fill="none" stroke="#000" stroke-linecap="round" stroke-linejoin="round" stroke-width="1.5"/>
          </g>
          <g id="g3060" transform="translate(27.803 1.489)">
            <path id="path3062" d="M2.345.007l-9,1.536A2.263,2.263,0,0,0-8.5,4.155l.733,4.292,13.46-2.3L4.957,1.857A2.263,2.263,0,0,0,2.345.007Z" transform="translate(8.535 0.026)" fill="none" stroke="#000" stroke-linecap="round" stroke-linejoin="round" stroke-width="1.5"/>
          </g>
          <g id="g3064" transform="translate(34.801 29.409)">
            <path id="path3066" d="M0,.479v-2.01A2.767,2.767,0,0,1,2.93-4.1a2.767,2.767,0,0,1,2.93,2.567V31.761a2.767,2.767,0,0,1-2.93,2.567A2.767,2.767,0,0,1,0,31.761V11.647" transform="translate(0 4.098)" fill="none" stroke="#000" stroke-linecap="round" stroke-linejoin="round" stroke-width="1.5"/>
          </g>
          <g id="g3068" transform="translate(21.465 29.438)">
            <path id="path3070" d="M1.118,4.006h0A2.816,2.816,0,0,1-1.97,1.584L-4.064-31.65a2.718,2.718,0,0,1,2.764-2.7,2.816,2.816,0,0,1,3.087,2.421L3.882,1.3A2.718,2.718,0,0,1,1.118,4.006Z" transform="translate(4.069 34.359)" fill="none" stroke="#000" stroke-linecap="round" stroke-linejoin="round" stroke-width="1.5"/>
          </g>
          <g id="g3072" transform="translate(46.042 29.438)">
            <path id="path3074" d="M.6,4.006h0A2.816,2.816,0,0,0,3.684,1.584L5.779-31.65a2.718,2.718,0,0,0-2.764-2.7A2.816,2.816,0,0,0-.073-31.933L-2.168,1.3A2.718,2.718,0,0,0,.6,4.006Z" transform="translate(2.172 34.359)" fill="none" stroke="#000" stroke-linecap="round" stroke-linejoin="round" stroke-width="1.5"/>
          </g>
          <g id="g3076" transform="translate(34.801 39.733)">
            <path id="path3078" d="M0,0V0" transform="translate(0 0)" fill="none" stroke="#000" stroke-linecap="round" stroke-linejoin="round" stroke-width="1.5"/>
          </g>
        </g>
      </g>
    </g>
  </g>
</svg>
