<svg xmlns="http://www.w3.org/2000/svg" width="160" height="160" viewBox="0 0 160 160">
  <g id="Grupo_59045" data-name="Grupo 59045" transform="translate(-328 -206)">
    <rect id="Rectángulo_10670" data-name="Rectángulo 10670" width="160" height="160" rx="8" transform="translate(328 206)" fill="#f2f2f2"/>
    <g id="user_2_" data-name="user (2)" transform="translate(384 254)">
      <path id="Trazado_63610" data-name="Trazado 63610" d="M33.99,31.98A15.99,15.99,0,1,0,18,15.99,15.99,15.99,0,0,0,33.99,31.98Zm0-26.65A10.66,10.66,0,1,1,23.33,15.99,10.66,10.66,0,0,1,33.99,5.33Z" transform="translate(-10.005)" fill="#b7b7b7"/>
      <path id="Trazado_63611" data-name="Trazado 63611" d="M32.985,42A24.011,24.011,0,0,0,9,65.985a2.665,2.665,0,1,0,5.33,0,18.655,18.655,0,1,1,37.31,0,2.665,2.665,0,1,0,5.33,0A24.011,24.011,0,0,0,32.985,42Z" transform="translate(-9 -4.69)" fill="#b7b7b7"/>
    </g>
  </g>
</svg>
