<svg xmlns="http://www.w3.org/2000/svg" xmlns:xlink="http://www.w3.org/1999/xlink" width="51.46" height="37.382" viewBox="0 0 51.46 37.382">
  <defs>
    <clipPath id="clip-path">
      <path id="Trazado_63600" data-name="Trazado 63600" d="M5.254,0a5.254,5.254,0,1,0,5.254,5.254A5.254,5.254,0,0,0,5.254,0Z" fill="none"/>
    </clipPath>
    <clipPath id="clip-path-2">
      <path id="Trazado_63601" data-name="Trazado 63601" d="M0,45.977a5.254,5.254,0,1,0,5.254-5.254A5.254,5.254,0,0,0,0,45.977" transform="translate(0 -40.723)" fill="none"/>
    </clipPath>
    <clipPath id="clip-path-3">
      <path id="Trazado_63602" data-name="Trazado 63602" d="M0,86.7a5.254,5.254,0,1,0,5.254-5.254A5.254,5.254,0,0,0,0,86.7" transform="translate(0 -81.448)" fill="none"/>
    </clipPath>
    <clipPath id="clip-path-4">
      <path id="Trazado_63603" data-name="Trazado 63603" d="M49.213,26.319H73.662a14.419,14.419,0,0,1-24.449,0M61.752,4.262a14.422,14.422,0,0,1,12.654,20.72ZM47.021,18.675A14.417,14.417,0,0,1,61.438,4.258h.074L48.6,25.241a14.356,14.356,0,0,1-1.579-6.566M61.438,0A18.675,18.675,0,1,0,80.113,18.675,18.675,18.675,0,0,0,61.438,0Z" transform="translate(-42.763)" fill="none"/>
    </clipPath>
  </defs>
  <g id="Grupo_58669" data-name="Grupo 58669" transform="translate(-34.648 42.314)">
    <g id="Grupo_58665" data-name="Grupo 58665" transform="translate(34.648 -42.314)">
      <g id="Grupo_58654" data-name="Grupo 58654" clip-path="url(#clip-path)">
        <rect id="Rectángulo_10627" data-name="Rectángulo 10627" width="13.269" height="13.269" transform="translate(-3.124 1.029) rotate(-18.238)" fill="#ff211c"/>
      </g>
    </g>
    <g id="Grupo_58666" data-name="Grupo 58666" transform="translate(34.648 -28.877)">
      <g id="Grupo_58656" data-name="Grupo 58656" clip-path="url(#clip-path-2)">
        <rect id="Rectángulo_10628" data-name="Rectángulo 10628" width="13.269" height="13.27" transform="matrix(0.95, -0.313, 0.313, 0.95, -3.124, 1.029)" fill="#ff211c"/>
      </g>
    </g>
    <g id="Grupo_58667" data-name="Grupo 58667" transform="translate(34.648 -15.44)">
      <g id="Grupo_58658" data-name="Grupo 58658" clip-path="url(#clip-path-3)">
        <rect id="Rectángulo_10629" data-name="Rectángulo 10629" width="13.269" height="13.269" transform="matrix(0.95, -0.313, 0.313, 0.95, -3.123, 1.029)" fill="#ff211c"/>
      </g>
    </g>
    <g id="Grupo_58668" data-name="Grupo 58668" transform="translate(48.758 -42.314)">
      <g id="Grupo_58660" data-name="Grupo 58660" clip-path="url(#clip-path-4)">
        <rect id="Rectángulo_10630" data-name="Rectángulo 10630" width="47.163" height="47.163" transform="translate(-11.102 3.658) rotate(-18.238)" fill="#ff211c"/>
      </g>
    </g>
  </g>
</svg>
