<svg xmlns="http://www.w3.org/2000/svg" xmlns:xlink="http://www.w3.org/1999/xlink" width="22" height="22" viewBox="0 0 22 22">
  <defs>
    <clipPath id="clip-path">
      <rect id="Rectángulo_10693" data-name="Rectángulo 10693" width="22" height="22" transform="translate(1356.862 324.862)" fill="#9a9a9a" stroke="#707070" stroke-width="1"/>
    </clipPath>
  </defs>
  <g id="Enmascarar_grupo_57880" data-name="Enmascarar grupo 57880" transform="translate(-1356.862 -324.862)" clip-path="url(#clip-path)">
    <path id="map-marker" d="M10.85,10.85A3.617,3.617,0,1,0,7.233,7.234,3.617,3.617,0,0,0,10.85,10.85Zm0-5.425A1.808,1.808,0,1,1,9.041,7.234,1.808,1.808,0,0,1,10.85,5.425Zm3.617,14.493L21.7,21.68V12.191a2.712,2.712,0,0,0-1.929-2.6l-1.9-.633A7.232,7.232,0,1,0,3.617,7.239a7.333,7.333,0,0,0,.09,1.1A2.705,2.705,0,0,0,0,10.85v8.817L7.218,21.73ZM7.013,3.4a5.425,5.425,0,1,1,7.679,7.665l-3.843,3.76L7.013,11.075a5.425,5.425,0,0,1,0-7.672ZM1.808,10.85a.891.891,0,0,1,.4-.752.91.91,0,0,1,.89-.061l1.3.468a7.266,7.266,0,0,0,1.344,1.859l5.108,5,5.115-5a7.262,7.262,0,0,0,1.266-1.7l2,.67a.9.9,0,0,1,.656.869v7.187l-5.424-1.325L7.251,19.865,1.808,18.306Z" transform="translate(1357.012 324.994)" fill="#9a9a9a"/>
  </g>
</svg>
